<?xml version="1.0" encoding="UTF-8"?>
<!DOCTYPE svg PUBLIC "-//W3C//DTD SVG 1.1//EN" "http://www.w3.org/Graphics/SVG/1.1/DTD/svg11.dtd">
<!-- Creator: CorelDRAW 2020 (64-Bit) -->
<svg xmlns="http://www.w3.org/2000/svg" xml:space="preserve" width="74.1804mm" height="52.4839mm" version="1.1" style="shape-rendering:geometricPrecision; text-rendering:geometricPrecision; image-rendering:optimizeQuality; fill-rule:evenodd; clip-rule:evenodd"
viewBox="0 0 39.89 28.22"
 xmlns:xlink="http://www.w3.org/1999/xlink"
 xmlns:xodm="http://www.corel.com/coreldraw/odm/2003">
 <defs>
  <style type="text/css">
   <![CDATA[
    .fil1 {fill:#024DF4}
    .fil2 {fill:#034DFB}
    .fil0 {fill:#FBFCFC}
   ]]>
  </style>
 </defs>
 <g id="Layer_x0020_1">
  <metadata id="CorelCorpID_0Corel-Layer"/>
  <path class="fil0" d="M-0 11.83c1.64,2.05 2.85,3.57 4.9,5.05 0.69,0.5 1.23,0.91 2,1.41 2.8,1.84 6.23,3.19 10.34,3.09l-0.83 -0.46c-0.34,-0.13 -0.65,-0.21 -0.98,-0.34 -0.56,-0.23 -1.28,-0.61 -1.78,-0.88 -1.15,-0.62 -2.15,-1.33 -3.06,-2.06 -1.91,-1.54 -3.39,-3.28 -4.94,-5.27 0.57,-1.39 3.91,-4.33 5.4,-5.32 6.48,-4.3 14.66,-3.59 20.97,0.54 1.25,0.82 2.11,1.66 3.13,2.36 -1.21,-2.63 -4.29,-5.57 -6.81,-7.21 -6.5,-4.25 -15.79,-3.35 -21.76,1.37 -2.09,1.65 -5.78,5.21 -6.59,7.73z"/>
  <path class="fil1" d="M34.43 16.74l-3.23 -0.01c-5.26,-0 -5.5,4.62 -12.07,7.11 -2.84,1.08 -4.95,1.38 -8.43,1.21 -3.48,-0.17 -6.51,-1.84 -7.84,-1.91 0.32,0.93 1.28,1.41 2.13,1.98 8.64,5.81 16.64,2.82 23.33,-3.84 2.29,-2.28 2.62,-2.05 6.67,-2.06 2.36,-0 1.63,0.79 3.03,0.78 2.52,-0.03 2.49,-4.04 -0.18,-3.86 -1.59,0.11 0.27,0.59 -3.42,0.59z"/>
  <path class="fil2" d="M18.67 8.94c-5.9,2.04 -2.6,10.26 2.65,8.37 5.53,-1.99 2.62,-10.2 -2.65,-8.37z"/>
 </g>
</svg>
